<?xml version="1.0" encoding="utf-8"?>
<svg viewBox="0 0 512 512" xmlns="http://www.w3.org/2000/svg">
  <path d="M256 160c16-63.16 76.43-95.41 208-96a15.94 15.94 0 0116 16v288a16 16 0 01-16 16c-128 0-177.45 25.81-208 64-30.37-38-80-64-208-64-9.88 0-16-8.05-16-17.93V80a15.94 15.94 0 0116-16c131.57.59 192 32.84 208 96zM256 160v288" fill="none" stroke="currentColor" stroke-linecap="round" stroke-linejoin="round" stroke-width="32" transform="matrix(1, 0, 0, 1, 0, -2.842170943040401e-14)"/>
  <path d="M 378.189 274.645 C 378.189 205.309 323.67 149.057 256.472 149.057 C 189.274 149.057 134.755 205.309 134.755 274.645 C 134.755 343.979 189.274 400.232 256.472 400.232 C 323.67 400.232 378.189 343.979 378.189 274.645 Z" fill="none" stroke="currentColor" stroke-miterlimit="10" stroke-width="32" style="" transform="matrix(1, 0, 0, 1, 0, -2.842170943040401e-14)"/>
  <path d="M 235.856 306.536 L 303.793 269.008 C 307.928 266.704 307.928 261.215 303.793 258.912 L 235.856 221.383 C 231.631 219.068 226.25 221.804 226.17 226.308 C 226.169 226.35 226.169 226.393 226.169 226.436 L 226.169 301.483 C 226.14 305.987 231.455 308.831 235.735 306.601 C 235.776 306.58 235.817 306.559 235.856 306.536 Z" style="stroke-width: 0px; stroke-linecap: square; stroke-linejoin: round;" transform="matrix(1, 0, 0, 1, 0, -2.842170943040401e-14)"/>
</svg>